<svg id="logo" xmlns="http://www.w3.org/2000/svg" xmlns:xlink="http://www.w3.org/1999/xlink" viewBox="0 0 487 509" shape-rendering="geometricPrecision" text-rendering="geometricPrecision"><style><![CDATA[#logo-g1_tr {animation: logo-g1_tr__tr 10000ms linear infinite normal forwards}@keyframes logo-g1_tr__tr { 0% {transform: translate(241.405859px,252.487081px) rotate(900deg)} 99.700000% {transform: translate(241.405859px,252.487081px) rotate(1260deg)} 100% {transform: translate(241.405859px,252.487081px) rotate(1260deg)} }]]></style><g id="logo-g1_tr" transform="translate(241.405859,252.487081) rotate(900)"><g id="logo-g1" transform="scale(-0.100000,0.100000) translate(-2414.058556,-2565.129150)"><path id="logo-path1" d="M2090,5066C2090,5064,2163,5006,2253,4939C2458,4783,2624,4620,2668,4531C2711,4444,2713,4361,2673,4324C2635,4289,2568,4272,2375,4249C2171,4225,2051,4207,1922,4179C1640,4118,1319,3971,1084,3794C563,3402,231,2804,135,2084C119,1965,115,1776,128,1782C133,1784,171,1826,214,1877C285,1962,377,2042,441,2076C465,2088,471,2101,485,2167C526,2361,555,2473,591,2575C806,3202,1285,3651,1870,3776C1991,3802,2300,3802,2420,3776C2661,3724,2882,3601,3045,3429C3167,3300,3243,3168,3297,2990C3322,2909,3324,2892,3328,2623L3332,2340L3377,2301C3401,2279,3445,2254,3473,2244C3502,2235,3557,2213,3597,2194C3694,2148,3714,2116,3708,2017C3693,1811,3531,1601,3295,1483C3137,1404,2980,1368,2790,1368C2347,1368,1955,1602,1766,1981C1710,2092,1681,2185,1635,2399C1616,2489,1594,2573,1585,2586C1516,2692,1327,2500,1234,2228C1198,2122,1180,1986,1180,1815C1180,1643,1198,1510,1240,1360C1308,1121,1433,858,1553,701C1663,557,2107,303,2436,195C2648,125,3007,54,3110,62L3155,65L2995,184C2722,388,2590,537,2590,643C2590,742,2649,775,2975,859C3102,892,3253,935,3312,955C3689,1082,3974,1272,4242,1574C4501,1866,4666,2242,4702,2621C4729,2913,4663,3144,4504,3310C4414,3404,4335,3450,4264,3450C4198,3450,4168,3430,4074,3321C3996,3231,3968,3214,3955,3248C3952,3257,3940,3339,3929,3429C3893,3735,3839,3923,3713,4180C3644,4322,3631,4341,3564,4407C3299,4665,2858,4899,2437,5006C2277,5046,2090,5079,2090,5066Z" fill="rgb(128,128,128)" stroke="none" stroke-width="1"/><path id="logo-path2" d="M2180,2867C2052,2782,2107,2570,2257,2570C2353,2570,2420,2630,2428,2723C2432,2783,2408,2829,2351,2867C2304,2899,2226,2899,2180,2867Z" fill="rgb(128,128,128)" stroke="none" stroke-width="1"/><path id="logo-path3" d="M2700,2828C2650,2793,2628,2746,2632,2679C2639,2584,2698,2530,2797,2530C2892,2530,2956,2604,2948,2705C2940,2797,2880,2850,2782,2850C2748,2850,2723,2843,2700,2828Z" fill="rgb(128,128,128)" stroke="none" stroke-width="1"/></g></g></svg>